<svg width="48" height="48" version="1.2" xmlns="http://www.w3.org/2000/svg" viewBox="0 0 1163 1158">
	<title>TSLA-0a331c14-svg</title>
	<style>
		.s0 { fill: #ffffff } 
	</style>
	<path id="path35" class="s0" d="m581.8 1157.6l162.6-914.7c155.1 0 204 17 211 86.4 0 0 104-38.8 156.4-117.5-204.6-94.9-410.3-99.2-410.3-99.2l-120 146.2h0.3l-120-146.2c0 0-205.6 4.3-410.3 99.1 52.4 78.8 156.5 117.6 156.5 117.6 7.1-69.4 55.9-86.4 209.9-86.5zm-0.1-1087.2c165.5-1.3 354.8 25.6 548.7 110.1 25.9-46.6 32.6-67.3 32.6-67.3-212-83.8-410.4-112.5-581.3-113.2-170.9 0.7-369.3 29.4-581.2 113.2 0 0 9.4 25.4 32.5 67.3 193.8-84.5 383.2-111.4 548.7-110.1z"/>
</svg>